<svg xmlns="http://www.w3.org/2000/svg" viewBox="0 0 172.49 11.42"><g id="Layer_2" data-name="Layer 2"><g id="Layer_1-2" data-name="Layer 1"><path d="M1.45,11.42l56.28-.85,56-.86c4.68-.07,9.43.11,14.09-.38,3.91-.41,7.8-1.48,10.59-4.4a1.52,1.52,0,0,0-.66-2.51c-13.31-5-27.6-1.17-40.91,1.79A125.35,125.35,0,0,1,75.32,7.33,155.55,155.55,0,0,1,52.38,6.5c-8.51-.87-17-2.23-25.4-3.59l-.4,3Q51.74,7.39,76.92,8.32T127.3,9.57q14.22.18,28.44.17a1.5,1.5,0,0,0,0-3q-25.2,0-50.39-.56T55,4.4q-14.2-.68-28.4-1.54c-1.66-.11-2.08,2.67-.4,2.94,15,2.42,30,4.85,45.25,4.65A116.27,116.27,0,0,0,93.2,8.06c7-1.44,14-3.29,21.08-4.34C121.9,2.59,129.7,2.57,137,5.31l-.66-2.5c-2.36,2.47-5.73,3.29-9,3.57-4.07.36-8.2.25-12.28.31l-27.65.43L32.58,8,1.45,8.42c-1.93,0-1.94,3,0,3Z"/><path d="M77.24,4.57,23,2.22,7.58,1.55v3q28.67.8,57.33.74t57.33-1q16.2-.51,32.38-1.29v-3L126,2.33a1.5,1.5,0,0,0,0,3A254.4,254.4,0,0,0,171,7L170.63,4a9.07,9.07,0,0,1-5.56-.57c-1.78-.74-2.55,2.16-.79,2.89a11.82,11.82,0,0,0,7.15.57A1.5,1.5,0,0,0,171,4,254.4,254.4,0,0,1,126,2.33v3l28.67-2.28c1.9-.15,1.95-3.09,0-3Q126,1.43,97.32,2T40,2.18Q23.78,2,7.58,1.55c-1.93-.06-1.92,2.91,0,3L61.82,6.9l15.42.67c1.93.08,1.93-2.92,0-3Z"/></g></g></svg>