<svg xmlns="http://www.w3.org/2000/svg" viewBox="0 0 139.41 9.45"><g id="Layer_2" data-name="Layer 2"><g id="Layer_1-2" data-name="Layer 1"><path d="M27.21,3q39.85,3,79.86,2.86,11.42,0,22.84-.34a1.5,1.5,0,0,0,0-3q-40.05-1-80.12-.28-11.44.19-22.88.52a1.5,1.5,0,0,0,0,3L112.62,6,137,6.06v-3q-25.47.66-51,.54t-51-1Q20.71,2.08,6.3,1.33c-1.93-.1-1.92,2.9,0,3Q31.76,5.65,57.24,6.22t51,.34q14.43-.13,28.84-.5a1.5,1.5,0,0,0,0-3L51.33,2.84,26.91,2.77v3q40-1.14,80.11-.65,11.45.13,22.89.41v-3q-40,1-79.91-1.06Q38.6.86,27.21,0c-1.92-.15-1.91,2.85,0,3Z"/><path d="M118.07,4.63C87.78,6.35,57.45,6.55,27.12,6.41Q14.3,6.35,1.45,6.24v3q26.66-.12,53.31-.43T107.82,8Q122.9,7.73,138,7.39c1.92,0,1.93-3,0-3q-26.66.6-53.31,1T31.59,6q-15.06.13-30.14.2a1.5,1.5,0,0,0,0,3c30.32.23,60.66.47,91-.49q12.83-.4,25.65-1.12c1.92-.1,1.93-3.1,0-3Z"/></g></g></svg>