<svg xmlns="http://www.w3.org/2000/svg" viewBox="0 0 200.25 10.3"><g id="Layer_2" data-name="Layer 2"><g id="Layer_1-2" data-name="Layer 1"><path d="M1.45,8c20.4-.14,40.81-.28,61.21-.57s40.79-.74,61.18-1.5q17.16-.63,34.29-1.6c1.92-.1,1.94-3.09,0-3C128.11,2.75,98,4.13,68,2.54Q55.28,1.88,42.64.43c-1.91-.22-1.9,2.78,0,3,29.89,3.47,60,3.18,90.05,2,8.48-.32,17-.71,25.44-1.1v-3C137.77,2.53,117.38,3.29,97,3.81s-40.79.79-61.19,1Q18.62,4.93,1.45,5a1.5,1.5,0,0,0,0,3Z"/><path d="M22.43.85a82.43,82.43,0,0,1-17.76.59v3Q35.89,3.14,67.13,3t62.48,1q17.67.61,35.32,1.6l-.4-2.94a139.44,139.44,0,0,1-46.69,4.24v3q31.47-2.79,63-3.84,9-.29,17.91-.45a1.5,1.5,0,0,0,0-3L163.21.45c-1.94-.12-1.9,2.83,0,3l27.12,2.42c1.93.17,1.91-2.83,0-3L163.21.45v3L198.8,5.58v-3q-31.59.56-63.11,2.85-8.94.65-17.85,1.44a1.5,1.5,0,0,0,0,3,142.11,142.11,0,0,0,47.49-4.35,1.51,1.51,0,0,0-.4-2.95Q133.73.83,102.49.26T40,.34Q22.33.7,4.67,1.44a1.5,1.5,0,0,0,0,3,86,86,0,0,0,18.56-.7c1.9-.27,1.09-3.16-.8-2.89Z"/></g></g></svg>