<svg xmlns="http://www.w3.org/2000/svg" viewBox="0 0 89.09 62.02"><g id="Layer_2" data-name="Layer 2"><g id="Layer_1-2" data-name="Layer 1"><path d="M68.47,3.19C56.73.09,44.14-1.4,32.24,1.75,23,4.19,14.37,9.65,8.94,17.59a29.14,29.14,0,0,0-3.59,26,24.89,24.89,0,0,0,7.08,10.75c4.06,3.51,9.18,5.19,14.41,6.06a134.65,134.65,0,0,0,37.4.67c9.59-1.1,20.57-3.72,23.85-14.1,3-9.42-1.14-20-7.19-27.24a41.48,41.48,0,0,0-24.24-14c-10.82-1.95-22,.12-31.83,4.79C15.71,14.78,6.59,21.59,2.22,30.94A26.73,26.73,0,0,0,0,37.81c-.33,1.89,2.56,2.7,2.89.79C4.53,29.21,11.59,22,19.33,17a54.06,54.06,0,0,1,28.81-9,39.82,39.82,0,0,1,25.27,8.61C80.15,22,85.37,30,86,38.82c.32,4.72-.76,9.6-4.24,13-3.22,3.14-7.7,4.55-12,5.4a105.38,105.38,0,0,1-16.14,1.65,141.94,141.94,0,0,1-17.5-.4c-5.4-.45-11.09-.95-16.15-3a20.15,20.15,0,0,1-9.41-7.94,25.75,25.75,0,0,1-1.8-23.31C12.2,16,19.5,9.86,27.61,6.47c10-4.18,21.26-4.15,31.77-2.25,2.79.5,5.55,1.14,8.3,1.86a1.5,1.5,0,0,0,.79-2.89Z"/></g></g></svg>